<mxfile host="app.diagrams.net" modified="2024-02-06T19:29:00.337Z" agent="Mozilla/5.0 (Windows NT 10.0; Win64; x64) AppleWebKit/537.36 (KHTML, like Gecko) Chrome/121.0.0.0 Safari/537.36" etag="ZLrbG1Yq6y6KvzjBoLen" version="23.1.1" type="device">
  <diagram name="PÃ¡gina-1" id="WcLAgzA1Vy52fFmA_tcN">
    <mxGraphModel dx="1877" dy="1734" grid="1" gridSize="10" guides="1" tooltips="1" connect="1" arrows="1" fold="1" page="1" pageScale="1" pageWidth="827" pageHeight="1169" math="0" shadow="0">
      <root>
        <mxCell id="0" />
        <mxCell id="1" parent="0" />
        <mxCell id="8Xj_rkhOrv3QxUSRsd-5-1" value="" style="image;points=[];aspect=fixed;html=1;align=center;shadow=0;dashed=0;image=img/lib/allied_telesis/computer_and_terminals/Personal_Computer_Wireless.svg;" vertex="1" parent="1">
          <mxGeometry x="80" y="-30" width="63" height="64.2" as="geometry" />
        </mxCell>
        <mxCell id="8Xj_rkhOrv3QxUSRsd-5-2" value="" style="image;points=[];aspect=fixed;html=1;align=center;shadow=0;dashed=0;image=img/lib/allied_telesis/computer_and_terminals/Personal_Computer_Wireless.svg;" vertex="1" parent="1">
          <mxGeometry x="230" y="100" width="63" height="64.2" as="geometry" />
        </mxCell>
        <mxCell id="8Xj_rkhOrv3QxUSRsd-5-3" value="" style="image;points=[];aspect=fixed;html=1;align=center;shadow=0;dashed=0;image=img/lib/allied_telesis/computer_and_terminals/Personal_Computer_Wireless.svg;" vertex="1" parent="1">
          <mxGeometry x="90" y="260" width="63" height="64.2" as="geometry" />
        </mxCell>
        <mxCell id="8Xj_rkhOrv3QxUSRsd-5-4" value="" style="image;points=[];aspect=fixed;html=1;align=center;shadow=0;dashed=0;image=img/lib/allied_telesis/computer_and_terminals/Personal_Computer_Wireless.svg;" vertex="1" parent="1">
          <mxGeometry x="-90" y="160" width="63" height="64.2" as="geometry" />
        </mxCell>
        <mxCell id="8Xj_rkhOrv3QxUSRsd-5-7" style="edgeStyle=orthogonalEdgeStyle;rounded=0;orthogonalLoop=1;jettySize=auto;html=1;" edge="1" parent="1" source="8Xj_rkhOrv3QxUSRsd-5-5" target="8Xj_rkhOrv3QxUSRsd-5-3">
          <mxGeometry relative="1" as="geometry">
            <mxPoint x="92" y="230" as="targetPoint" />
          </mxGeometry>
        </mxCell>
        <mxCell id="8Xj_rkhOrv3QxUSRsd-5-9" value="" style="edgeStyle=orthogonalEdgeStyle;rounded=0;orthogonalLoop=1;jettySize=auto;html=1;" edge="1" parent="1" source="8Xj_rkhOrv3QxUSRsd-5-5" target="8Xj_rkhOrv3QxUSRsd-5-2">
          <mxGeometry relative="1" as="geometry" />
        </mxCell>
        <mxCell id="8Xj_rkhOrv3QxUSRsd-5-13" style="edgeStyle=orthogonalEdgeStyle;rounded=0;orthogonalLoop=1;jettySize=auto;html=1;exitX=0.5;exitY=0;exitDx=0;exitDy=0;" edge="1" parent="1" source="8Xj_rkhOrv3QxUSRsd-5-5">
          <mxGeometry relative="1" as="geometry">
            <mxPoint x="100" y="40" as="targetPoint" />
          </mxGeometry>
        </mxCell>
        <mxCell id="8Xj_rkhOrv3QxUSRsd-5-5" value="" style="image;html=1;image=img/lib/clip_art/networking/Router_128x128.png" vertex="1" parent="1">
          <mxGeometry x="41.5" y="110" width="80" height="80" as="geometry" />
        </mxCell>
        <mxCell id="8Xj_rkhOrv3QxUSRsd-5-17" style="edgeStyle=orthogonalEdgeStyle;rounded=0;orthogonalLoop=1;jettySize=auto;html=1;exitX=0;exitY=0.5;exitDx=0;exitDy=0;entryX=1.013;entryY=0.408;entryDx=0;entryDy=0;entryPerimeter=0;" edge="1" parent="1" source="8Xj_rkhOrv3QxUSRsd-5-5" target="8Xj_rkhOrv3QxUSRsd-5-4">
          <mxGeometry relative="1" as="geometry" />
        </mxCell>
      </root>
    </mxGraphModel>
  </diagram>
</mxfile>
